<?xml version="1.0" encoding="UTF-8" standalone="no"?>
<!-- Created with Inkscape (http://www.inkscape.org/) -->

<svg
   width="105.83334mm"
   height="52.916668mm"
   viewBox="0 0 105.83334 52.916667"
   version="1.1"
   id="svg1"
   xml:space="preserve"
   inkscape:version="1.4.2 (f4327f4, 2025-05-13)"
   sodipodi:docname="button_pressed.svg"
   xmlns:inkscape="http://www.inkscape.org/namespaces/inkscape"
   xmlns:sodipodi="http://sodipodi.sourceforge.net/DTD/sodipodi-0.dtd"
   xmlns="http://www.w3.org/2000/svg"
   xmlns:svg="http://www.w3.org/2000/svg"><sodipodi:namedview
     id="namedview1"
     pagecolor="#ffffff"
     bordercolor="#000000"
     borderopacity="0.25"
     inkscape:showpageshadow="2"
     inkscape:pageopacity="0.0"
     inkscape:pagecheckerboard="0"
     inkscape:deskcolor="#d1d1d1"
     inkscape:document-units="mm"
     showguides="true"
     inkscape:zoom="1.2674155"
     inkscape:cx="107.69949"
     inkscape:cy="90.341328"
     inkscape:window-width="1360"
     inkscape:window-height="705"
     inkscape:window-x="-8"
     inkscape:window-y="-8"
     inkscape:window-maximized="1"
     inkscape:current-layer="layer1"><sodipodi:guide
       position="52.916666,26.458335"
       orientation="-1,0"
       id="guide2"
       inkscape:locked="false"
       inkscape:label=""
       inkscape:color="rgb(0,134,229)" /><sodipodi:guide
       position="53.84121,210.40149"
       orientation="0,1"
       id="guide3"
       inkscape:locked="false"
       inkscape:label=""
       inkscape:color="rgb(0,134,229)" /><sodipodi:guide
       position="52.905087,26.44508"
       orientation="0,-1"
       id="guide4"
       inkscape:locked="false" /></sodipodi:namedview><defs
     id="defs1" /><g
     inkscape:label="Ebene 1"
     inkscape:groupmode="layer"
     id="layer1"
     transform="translate(-46.158791,-13.401494)"><path
       style="display:inline;fill:#ffffff;fill-opacity:1;stroke:none;stroke-width:4.95129;stroke-dasharray:none;stroke-opacity:1"
       d="m 120.1675,58.120369 c -14.11895,-6.606859 -27.235563,-6.682018 -41.692416,-0.2389 -1.614529,0.719563 -3.344419,1.308295 -3.844201,1.308295 -1.271871,0 -21.725076,-20.614122 -21.725076,-21.896001 0,-1.459103 1.444203,-2.925755 5.041564,-5.119926 9.94234,-6.064224 19.246559,-9.515761 29.886078,-11.086679 5.538957,-0.817823 16.434371,-0.824994 22.049841,-0.01451 10.9471,1.580001 21.88821,5.665799 30.936,11.552602 3.33845,2.172116 4.40266,3.294803 4.40266,4.64461 0,0.892768 -19.17485,20.76742 -20.95151,21.716155 -0.95271,0.508744 -1.34086,0.426853 -4.10294,-0.865646 z"
       id="path4"
       inkscape:label="Filling" /><path
       id="path2"
       style="display:none;opacity:1;fill:none;fill-opacity:1;stroke:#cccccc;stroke-width:1.9995;stroke-dasharray:none;stroke-opacity:1"
       d="m 75.262958,18.369994 a 4.2919202,4.2919183 0 0 0 -4.291728,4.292244 4.2919202,4.2919183 0 0 0 4.291728,4.291728 4.2919202,4.2919183 0 0 0 4.291727,-4.291728 4.2919202,4.2919183 0 0 0 -4.291727,-4.292244 z m 15.875,0 a 4.2919202,4.2919183 0 0 0 -4.291728,4.292244 4.2919202,4.2919183 0 0 0 4.291728,4.291728 4.2919202,4.2919183 0 0 0 4.291727,-4.291728 4.2919202,4.2919183 0 0 0 -4.291727,-4.292244 z m 15.875002,0 a 4.2919202,4.2919183 0 0 0 -4.29173,4.292244 4.2919202,4.2919183 0 0 0 4.29173,4.291728 4.2919202,4.2919183 0 0 0 4.29173,-4.291728 4.2919202,4.2919183 0 0 0 -4.29173,-4.292244 z m 15.875,0 a 4.2919202,4.2919183 0 0 0 -4.29173,4.292244 4.2919202,4.2919183 0 0 0 4.29173,4.291728 4.2919202,4.2919183 0 0 0 4.29173,-4.291728 4.2919202,4.2919183 0 0 0 -4.29173,-4.292244 z m -55.562502,15.875 a 4.2919202,4.2919183 0 0 0 -4.291728,4.292244 4.2919202,4.2919183 0 0 0 4.291728,4.291728 4.2919202,4.2919183 0 0 0 4.291727,-4.291728 4.2919202,4.2919183 0 0 0 -4.291727,-4.292244 z m 15.875,0 a 4.2919202,4.2919183 0 0 0 -4.291728,4.292244 4.2919202,4.2919183 0 0 0 4.291728,4.291728 4.2919202,4.2919183 0 0 0 4.291727,-4.291728 4.2919202,4.2919183 0 0 0 -4.291727,-4.292244 z m 15.875,0 a 4.2919202,4.2919183 0 0 0 -4.291728,4.292244 4.2919202,4.2919183 0 0 0 4.291728,4.291728 4.2919202,4.2919183 0 0 0 4.291732,-4.291728 4.2919202,4.2919183 0 0 0 -4.291732,-4.292244 z m 15.875002,0 a 4.2919202,4.2919183 0 0 0 -4.29173,4.292244 4.2919202,4.2919183 0 0 0 4.29173,4.291728 4.2919202,4.2919183 0 0 0 4.29173,-4.291728 4.2919202,4.2919183 0 0 0 -4.29173,-4.292244 z m 15.875,0 a 4.2919202,4.2919183 0 0 0 -4.29173,4.292244 4.2919202,4.2919183 0 0 0 4.29173,4.291728 4.2919202,4.2919183 0 0 0 4.29173,-4.291728 4.2919202,4.2919183 0 0 0 -4.29173,-4.292244 z m -55.562502,15.875 a 4.2919202,4.2919183 0 0 0 -4.291728,4.292244 4.2919202,4.2919183 0 0 0 4.291728,4.291728 4.2919202,4.2919183 0 0 0 4.291727,-4.291728 4.2919202,4.2919183 0 0 0 -4.291727,-4.292244 z m 15.875,0 a 4.2919202,4.2919183 0 0 0 -4.291728,4.292244 4.2919202,4.2919183 0 0 0 4.291728,4.291728 4.2919202,4.2919183 0 0 0 4.291727,-4.291728 4.2919202,4.2919183 0 0 0 -4.291727,-4.292244 z m 15.875002,0 a 4.2919202,4.2919183 0 0 0 -4.29173,4.292244 4.2919202,4.2919183 0 0 0 4.29173,4.291728 4.2919202,4.2919183 0 0 0 4.29173,-4.291728 4.2919202,4.2919183 0 0 0 -4.29173,-4.292244 z m 15.875,0 a 4.2919202,4.2919183 0 0 0 -4.29173,4.292244 4.2919202,4.2919183 0 0 0 4.29173,4.291728 4.2919202,4.2919183 0 0 0 4.29173,-4.291728 4.2919202,4.2919183 0 0 0 -4.29173,-4.292244 z"
       inkscape:label="Circles" /><path
       style="display:inline;fill:#000000;fill-opacity:1;stroke:none;stroke-width:2.47564;stroke-dasharray:none;stroke-opacity:1"
       d="m 47.958154,42.859915 c -2.338277,-3.394017 -2.402858,-7.900279 -0.16301,-11.375526 0.999768,-1.551181 1.638197,-2.088143 5.267214,-4.430031 25.752991,-16.618977 57.766422,-18.1637304 84.910812,-4.097198 5.66632,2.936334 10.81626,6.441674 12.13942,8.262755 1.51692,2.08771 2.25935,5.654508 1.68632,8.101407 -0.72832,3.110005 -2.65923,5.420036 -13.5526,16.213604 -10.57973,10.482786 -10.62764,10.518619 -14.38684,10.761692 -2.11952,0.137065 -3.76674,-0.355716 -7.28242,-2.178548 C 111.4472,61.458331 105.3542,60.046981 99.068633,60.062522 92.792031,60.078039 87.244365,61.394149 81.105995,64.323917 77.394764,66.095235 76.379852,66.3746 74.190817,66.22737 70.395267,65.972103 70.518369,66.066967 59.25033,54.712613 53.626972,49.046283 48.545547,43.712525 47.958154,42.859915 Z m 26.453564,16.708047 c 0.608132,0.109595 2.134001,-0.406279 3.969045,-1.34187 8.653246,-4.41184 19.924684,-6.030622 29.272607,-4.204097 3.68848,0.720705 9.6815,2.844184 12.66343,4.486957 1.47388,0.811963 2.75452,1.238573 3.38306,1.126946 0.86545,-0.153676 2.48392,-1.67191 11.21541,-10.52079 8.91634,-9.036217 10.22752,-10.476401 10.39064,-11.41251 0.34014,-1.952363 -0.32091,-2.754115 -4.48529,-5.44002 -22.78328,-14.694561 -52.524491,-16.251991 -76.577759,-4.010083 -4.85265,2.469764 -10.637144,6.190324 -11.081305,7.127451 -0.160274,0.338149 -0.319202,1.145208 -0.353205,1.793476 l -0.06181,1.178671 10.338626,10.518916 c 8.747484,8.900026 10.490659,10.546326 11.326553,10.696953 z"
       id="path15"
       sodipodi:nodetypes="sssssssssssccssssssssssscsss"
       inkscape:label="whiteline" /><path
       style="display:inline;fill:none;fill-opacity:1;stroke:#ffffff;stroke-width:4.95129;stroke-dasharray:none;stroke-opacity:1"
       d="m 120.1675,58.120369 c -14.11895,-6.606859 -27.235563,-6.682018 -41.692416,-0.2389 -1.614529,0.719563 -3.344419,1.308295 -3.844201,1.308295 -1.271871,0 -21.725076,-20.614122 -21.725076,-21.896001 0,-1.459103 1.444203,-2.925755 5.041564,-5.119926 9.94234,-6.064224 19.246559,-9.515761 29.886078,-11.086679 5.538957,-0.817823 16.434371,-0.824994 22.049841,-0.01451 10.9471,1.580001 21.88821,5.665799 30.936,11.552602 3.33845,2.172116 4.40266,3.294803 4.40266,4.64461 0,0.892768 -19.17485,20.76742 -20.95151,21.716155 -0.95271,0.508744 -1.34086,0.426853 -4.10294,-0.865646 z"
       id="path1"
       inkscape:label="Blackline" /></g></svg>
