<?xml version="1.0" encoding="UTF-8" standalone="no"?>
<svg
   id="emoji"
   viewBox="0 0 72 72"
   version="1.1"
   sodipodi:docname="1F6BC.svg"
   inkscape:version="1.4.2 (f4327f4, 2025-05-13)"
   xmlns:inkscape="http://www.inkscape.org/namespaces/inkscape"
   xmlns:sodipodi="http://sodipodi.sourceforge.net/DTD/sodipodi-0.dtd"
   xmlns="http://www.w3.org/2000/svg"
   xmlns:svg="http://www.w3.org/2000/svg">
  <defs
     id="defs3" />
  <sodipodi:namedview
     id="namedview3"
     pagecolor="#ffffff"
     bordercolor="#000000"
     borderopacity="0.25"
     inkscape:showpageshadow="2"
     inkscape:pageopacity="0.0"
     inkscape:pagecheckerboard="0"
     inkscape:deskcolor="#d1d1d1"
     inkscape:zoom="6.9861111"
     inkscape:cx="35.928429"
     inkscape:cy="36"
     inkscape:window-width="1360"
     inkscape:window-height="705"
     inkscape:window-x="-8"
     inkscape:window-y="-8"
     inkscape:window-maximized="1"
     inkscape:current-layer="emoji" />
  <path
     fill="none"
     stroke="#000000"
     stroke-linecap="round"
     stroke-linejoin="round"
     stroke-miterlimit="10"
     stroke-width="2"
     d="m 47.4,40 c -4.536,-5.67 -11.9,-5.684 -11.9,-5.684 0,0 -7.364,0.014 -11.9,5.684"
     id="path2" />
  <path
     fill="none"
     stroke="#000000"
     stroke-linecap="round"
     stroke-linejoin="round"
     stroke-miterlimit="10"
     stroke-width="2"
     d="m 39,38.6 5.6,11.2 c 0,0 0,1.4 -1.4,1.4 -1.4,0 -5.6,-4.2 -5.6,-4.2 h -2.8 1.4 -2.8 c 0,0 -4.2,4.2 -5.6,4.2 -1.4,0 -1.4,-1.4 -1.4,-1.4 L 32,38.6"
     id="path3" />
  <polygon
     fill="none"
     stroke="#000000"
     stroke-linecap="round"
     stroke-linejoin="round"
     stroke-miterlimit="10"
     stroke-width="2"
     points="30.6,41.4 40.4,41.4 40.4,44.2 37.6,47 33.4,47 30.6,44.2 "
     id="polygon3" />
  <circle
     cx="36.200001"
     cy="27"
     r="4.1999998"
     fill="none"
     stroke="#000000"
     stroke-linecap="round"
     stroke-linejoin="round"
     stroke-miterlimit="10"
     stroke-width="2"
     id="circle3" />
</svg>
