<?xml version="1.0" encoding="UTF-8" standalone="no"?>
<svg
   id="emoji"
   viewBox="0 0 72 72"
   version="1.1"
   sodipodi:docname="Icon_setting_read.svg"
   inkscape:version="1.4.2 (f4327f4, 2025-05-13)"
   xmlns:inkscape="http://www.inkscape.org/namespaces/inkscape"
   xmlns:sodipodi="http://sodipodi.sourceforge.net/DTD/sodipodi-0.dtd"
   xmlns="http://www.w3.org/2000/svg"
   xmlns:svg="http://www.w3.org/2000/svg">
  <defs
     id="defs6" />
  <sodipodi:namedview
     id="namedview6"
     pagecolor="#ffffff"
     bordercolor="#000000"
     borderopacity="0.25"
     inkscape:showpageshadow="2"
     inkscape:pageopacity="0.0"
     inkscape:pagecheckerboard="0"
     inkscape:deskcolor="#d1d1d1"
     inkscape:zoom="7.2916667"
     inkscape:cx="36"
     inkscape:cy="36"
     inkscape:window-width="1360"
     inkscape:window-height="705"
     inkscape:window-x="-8"
     inkscape:window-y="-8"
     inkscape:window-maximized="1"
     inkscape:current-layer="emoji" />
  <g
     id="color">
    <path
       fill="#9B9B9A"
       d="M58.3698,30.524c-5.6511-5.6511-13.458-9.1464-22.0813-9.1464c-8.6366,0-16.4544,3.5061-22.1075,9.1726 l-3.813-3.7631c6.6245-6.6507,15.7919-10.7667,25.9205-10.7667c10.1026,0,19.2488,4.0949,25.8694,10.7154L58.3698,30.524z"
       id="path1"
       style="fill:#ffffff" />
    <path
       fill="#9B9B9A"
       d="M21.9165,38.2856c3.7224-3.7905,8.9056-6.1416,14.6379-6.1416c5.5973,0,10.671,2.2416,14.3724,5.876 l3.7837-3.7919c-4.6705-4.6014-11.0817-7.4409-18.1561-7.4409c-7.2115,0-13.7339,2.9506-18.4258,7.7105L21.9165,38.2856z"
       id="path2"
       style="fill:#ffffff" />
    <path
       fill="#9B9B9A"
       d="M43.3518,45.5965c-1.7623-1.6966-4.158-2.7397-6.7974-2.7397c-2.7741,0-5.2791,1.1524-7.0623,3.0046 l-3.8144-3.8145c2.7547-2.8372,6.6098-4.6001,10.8766-4.6001c4.1307,0,7.8755,1.6522,10.6097,4.3319L43.3518,45.5965z"
       id="path3"
       style="fill:#ffffff" />
  </g>
  <g
     id="hair" />
  <g
     id="skin" />
  <g
     id="skin-shadow" />
  <g
     id="line">
    <path
       fill="none"
       stroke="#000000"
       stroke-linecap="round"
       stroke-linejoin="round"
       stroke-miterlimit="10"
       stroke-width="2"
       d="M58.3698,30.524c-5.6511-5.6511-13.458-9.1464-22.0813-9.1464c-8.6366,0-16.4544,3.5061-22.1075,9.1726l-3.813-3.7631 c6.6245-6.6507,15.7919-10.7667,25.9205-10.7667c10.1026,0,19.2488,4.0949,25.8694,10.7154L58.3698,30.524z"
       id="path4" />
    <path
       fill="none"
       stroke="#000000"
       stroke-linecap="round"
       stroke-linejoin="round"
       stroke-miterlimit="10"
       stroke-width="2"
       d="M21.9165,38.2856c3.7224-3.7905,8.9056-6.1416,14.6379-6.1416c5.5973,0,10.671,2.2416,14.3724,5.876l3.7837-3.7919 c-4.6705-4.6014-11.0817-7.4409-18.1561-7.4409c-7.2115,0-13.7339,2.9506-18.4258,7.7105L21.9165,38.2856z"
       id="path5" />
    <path
       fill="none"
       stroke="#000000"
       stroke-linecap="round"
       stroke-linejoin="round"
       stroke-miterlimit="10"
       stroke-width="2"
       d="M43.3518,45.5965c-1.7623-1.6966-4.158-2.7397-6.7974-2.7397c-2.7741,0-5.2791,1.1524-7.0623,3.0046l-3.8144-3.8145 c2.7547-2.8372,6.6098-4.6001,10.8766-4.6001c4.1307,0,7.8755,1.6522,10.6097,4.3319L43.3518,45.5965z"
       id="path6" />
  </g>
</svg>
