<?xml version="1.0" encoding="UTF-8" standalone="no"?>
<svg
   id="emoji"
   viewBox="0 0 72 72"
   version="1.1"
   sodipodi:docname="icon_mode_random_on.svg"
   inkscape:version="1.4.2 (f4327f4, 2025-05-13)"
   xmlns:inkscape="http://www.inkscape.org/namespaces/inkscape"
   xmlns:sodipodi="http://sodipodi.sourceforge.net/DTD/sodipodi-0.dtd"
   xmlns="http://www.w3.org/2000/svg"
   xmlns:svg="http://www.w3.org/2000/svg">
  <defs
     id="defs36" />
  <sodipodi:namedview
     id="namedview36"
     pagecolor="#ffffff"
     bordercolor="#000000"
     borderopacity="0.25"
     inkscape:showpageshadow="2"
     inkscape:pageopacity="0.0"
     inkscape:pagecheckerboard="0"
     inkscape:deskcolor="#d1d1d1"
     inkscape:zoom="6.9861111"
     inkscape:cx="36"
     inkscape:cy="35.856859"
     inkscape:window-width="1360"
     inkscape:window-height="705"
     inkscape:window-x="-8"
     inkscape:window-y="-8"
     inkscape:window-maximized="1"
     inkscape:current-layer="emoji" />
  <path
     id="path1"
     d="m 36.482422,7.0410156 c -3.6489,0 -6.798169,6.3793564 -8.355469,15.7226564 -9.0994,-2.6032 -16.222115,-2.499519 -17.791015,0.800781 -1.3829005,2.9053 1.917071,7.636047 8.076171,12.435547 -6.1591,4.7995 -9.4589715,9.528394 -8.076171,12.433594 1.569,3.2888 8.680015,3.405834 17.791015,0.802734 1.5457,9.3433 4.706569,15.722656 8.355469,15.722656 3.649087,0 6.809863,-6.379408 8.355469,-15.722656 9.1109,2.6031 16.235887,2.499619 17.804687,-0.800781 1.383,-2.9053 -1.918825,-7.636247 -8.078125,-12.435547 6.1592,-4.7995 9.461025,-9.530247 8.078125,-12.435547 -1.5689,-3.3004 -8.693787,-3.403881 -17.804687,-0.800781 C 43.280787,13.420309 40.131613,7.0409156 36.482422,7.0410156 Z m 0.01172,18.6738284 c 1.324977,0.557791 2.673626,1.149992 4.033203,1.800781 1.800761,0.848046 3.520044,1.744398 5.158203,2.662109 -1.6386,-0.918 -3.356903,-1.811856 -5.158203,-2.660156 -1.359579,-0.65079 -2.708223,-1.244942 -4.033203,-1.802734 z"
     style="display:inline;fill:#ffffff;fill-opacity:1" />
  <g
     id="line">
    <path
       fill="none"
       stroke="#000000"
       stroke-linejoin="round"
       stroke-miterlimit="10"
       stroke-width="2"
       d="m 18.4119,36 c -6.1591,-4.7995 -9.4596,-9.5293 -8.0767,-12.4346 1.569,-3.3004 8.6926,-3.405 17.792,-0.8019"
       id="path14"
       style="display:inline" />
    <path
       fill="none"
       stroke="#000000"
       stroke-linejoin="round"
       stroke-miterlimit="10"
       stroke-width="2"
       d="m 54.5651,36 c 6.1592,4.7995 9.4596,9.5293 8.0766,12.4346 -1.5688,3.3004 -8.6926,3.405 -17.8035,0.8019 -2.638,-0.7554 -5.4504,-1.7432 -8.344,-2.9518 -1.3363,-0.5462 -2.6844,-1.1388 -4.0441,-1.7896 -1.8013,-0.8599 -3.5329,-1.7548 -5.1713,-2.6728"
       id="path15"
       style="display:inline" />
    <path
       fill="none"
       stroke="#000000"
       stroke-linecap="round"
       stroke-linejoin="round"
       stroke-miterlimit="10"
       stroke-width="2"
       d="m 44.0918,53 c -1.6996,7.2511 -4.4743,11.9598 -7.6092,11.9598 -3.6489,0 -6.8098,-6.38 -8.3555,-15.7233 L 27.6429,46.891"
       id="path16"
       style="display:inline" />
    <path
       fill="none"
       stroke="#000000"
       stroke-linecap="round"
       stroke-linejoin="round"
       stroke-miterlimit="10"
       stroke-width="2"
       d="M28.9271,18.7895c1.7085-7.1316,4.4512-11.7492,7.5555-11.7492c3.6492,0,6.7985,6.38,8.3556,15.7233"
       id="path17" />
    <path
       fill="none"
       stroke="#000000"
       stroke-linejoin="round"
       stroke-miterlimit="10"
       stroke-width="2"
       d="m 28.1271,22.7636 c 2.6496,0.7554 5.4619,1.7432 8.3671,2.9518"
       id="path18"
       style="display:inline" />
    <path
       fill="none"
       stroke="#000000"
       stroke-linejoin="round"
       stroke-miterlimit="10"
       stroke-width="2"
       d="M44.8382,49.2364 c-2.638-0.7554-5.4504-1.7432-8.344-2.9518c-1.3363-0.5462-2.6844-1.1388-4.0441-1.7896 c-1.8013-0.8599-3.5329-1.7548-5.1713-2.6728"
       id="path19" />
    <path
       fill="none"
       stroke="#000000"
       stroke-linecap="round"
       stroke-linejoin="round"
       stroke-miterlimit="10"
       stroke-width="2"
       d="M45.8683,34.3501c0.0105,0.5455,0.0159,1.0955,0.0159,1.6499c0,1.9989-0.0698,3.9512-0.1976,5.8338 c-0.0533,0.8571-0.1204,1.7004-0.2004,2.528"
       id="path20" />
    <path
       fill="none"
       stroke="#000000"
       stroke-linecap="round"
       stroke-linejoin="round"
       stroke-miterlimit="10"
       stroke-width="2"
       d="M23.7183,50.3166c-6.9369,1.3942-12.078,0.8539-13.3832-1.882c-1.1056-2.3228,0.7824-5.8117,4.7314-9.5702"
       id="path21" />
    <path
       fill="none"
       stroke="#000000"
       stroke-linejoin="round"
       stroke-miterlimit="10"
       stroke-width="2"
       d="M27.1335,41.7408 C23.8451,39.8939,20.8971,37.947,18.4119,36"
       id="path22" />
    <path
       fill="none"
       stroke="#000000"
       stroke-linejoin="round"
       stroke-miterlimit="10"
       stroke-width="2"
       d="M27.2788,41.8222 c-0.0485-0.0271-0.097-0.0543-0.1453-0.0814"
       id="path23" />
    <path
       fill="none"
       stroke="#000000"
       stroke-linecap="round"
       stroke-linejoin="round"
       stroke-miterlimit="10"
       stroke-width="2"
       d="M44.8382,22.7636c0.1379,0.803,0.263,1.63,0.3744,2.4777"
       id="path24" />
    <path
       fill="none"
       stroke="#000000"
       stroke-linecap="round"
       stroke-linejoin="round"
       stroke-miterlimit="10"
       stroke-width="2"
       d="M49.1309,21.7063c6.9986-1.4263,12.1984-0.9018,13.5108,1.8591c1.0638,2.2348-0.6435,5.5491-4.2915,9.1443"
       id="path25" />
    <path
       fill="none"
       stroke="#000000"
       stroke-linecap="round"
       stroke-linejoin="round"
       stroke-miterlimit="10"
       stroke-width="2"
       d="M54.5651,36c-2.5217-1.964-5.52-3.9396-8.8785-5.8222"
       id="path26" />
    <path
       fill="none"
       stroke="#000000"
       stroke-linejoin="round"
       stroke-miterlimit="10"
       stroke-width="2"
       d="M45.6866,30.1778 c3.3585,1.8826,6.3568,3.8582,8.8785,5.8222"
       id="path27" />
    <path
       fill="none"
       stroke="#000000"
       stroke-linecap="round"
       stroke-linejoin="round"
       stroke-miterlimit="10"
       stroke-width="2"
       d="M41.666,43.947c-0.2817,0.1403-0.5677,0.2787-0.8578,0.4148"
       id="path28" />
    <path
       fill="none"
       stroke="#000000"
       stroke-linejoin="round"
       stroke-miterlimit="10"
       stroke-width="2"
       d="M36.4942,25.7154 c1.325,0.5578,2.6729,1.1505,4.0325,1.8013c1.8013,0.8483,3.5212,1.7432,5.1598,2.6612"
       id="path29" />
    <path
       fill="none"
       stroke="#000000"
       stroke-linecap="round"
       stroke-linejoin="round"
       stroke-miterlimit="10"
       stroke-width="2"
       d="M27.0903,36.7225c-0.0061-0.5548-0.0092-1.1129-0.0092-1.6746c0-2.6514,0.0697-5.2563,0.1976-7.7526"
       id="path30" />
    <path
       fill="none"
       stroke="#000000"
       stroke-linejoin="round"
       stroke-miterlimit="10"
       stroke-width="2"
       d="M36.4942,46.2846 c-1.3363-0.5462-2.6844-1.1388-4.0441-1.7896c-1.8013-0.8599-3.5329-1.7548-5.1713-2.6728"
       id="path31" />
    <circle
       cx="36.8262"
       cy="36.3268"
       r="3.2625"
       fill="none"
       stroke="#000000"
       stroke-miterlimit="10"
       stroke-width="2"
       id="circle31" />
    <path
       fill="none"
       stroke="#000000"
       stroke-linecap="round"
       stroke-linejoin="round"
       stroke-miterlimit="10"
       stroke-width="2"
       d="M31.61,48.3635c0,0,0.3376-0.0601,0.9707-0.3281"
       id="path32" />
    <path
       fill="none"
       stroke="#000000"
       stroke-linecap="round"
       stroke-linejoin="round"
       stroke-miterlimit="10"
       stroke-width="2"
       d="M49.7017,39.9667c0,0,1.4042-0.8972,1.6463-1.1023"
       id="path33" />
    <path
       fill="none"
       stroke="#000000"
       stroke-linecap="round"
       stroke-linejoin="round"
       stroke-miterlimit="10"
       stroke-width="2"
       d="M31.7066,27.2953c-0.2829,0.143-0.5659,0.2907-0.8485,0.4432"
       id="path34" />
    <path
       fill="none"
       stroke="#000000"
       stroke-linecap="round"
       stroke-linejoin="round"
       stroke-miterlimit="10"
       stroke-width="2"
       d="M22.2214,32.7675c0,0,0.2273-0.2384,0.8141-0.5891"
       id="path35" />
    <path
       fill="none"
       stroke="#000000"
       stroke-linecap="round"
       stroke-linejoin="round"
       stroke-miterlimit="10"
       stroke-width="2"
       d="M39.7525,23.2019c0,0,1.6145-0.5904,1.9449-0.6609"
       id="path36" />
  </g>
</svg>
