<?xml version="1.0" encoding="UTF-8" standalone="no"?>
<svg
   id="emoji"
   viewBox="0 0 72 72"
   version="1.1"
   sodipodi:docname="icon_setting_slower.svg"
   inkscape:version="1.4.2 (f4327f4, 2025-05-13)"
   xmlns:inkscape="http://www.inkscape.org/namespaces/inkscape"
   xmlns:sodipodi="http://sodipodi.sourceforge.net/DTD/sodipodi-0.dtd"
   xmlns="http://www.w3.org/2000/svg"
   xmlns:svg="http://www.w3.org/2000/svg">
  <defs
     id="defs4" />
  <sodipodi:namedview
     id="namedview4"
     pagecolor="#ffffff"
     bordercolor="#000000"
     borderopacity="0.25"
     inkscape:showpageshadow="2"
     inkscape:pageopacity="0.0"
     inkscape:pagecheckerboard="0"
     inkscape:deskcolor="#d1d1d1"
     inkscape:zoom="7.2916667"
     inkscape:cx="36.068571"
     inkscape:cy="25.028571"
     inkscape:window-width="1360"
     inkscape:window-height="705"
     inkscape:window-x="-8"
     inkscape:window-y="-8"
     inkscape:window-maximized="1"
     inkscape:current-layer="emoji" />
  <g
     id="color">
    <path
       fill="#6A462F"
       stroke="#6A462F"
       stroke-miterlimit="10"
       stroke-width="2"
       d="M23,39c2.2654-7.9289,10-3,10-3c6,5,1,15-8,13 s-9-12-6-17s14-9,21-1c1.8184,2.0781,2,6,1,14l-1,5l-9,1"
       id="path1"
       style="fill:#ffffff;stroke:#ffffff;stroke-opacity:1" />
    <path
       fill="#A57939"
       stroke="none"
       d="M11,54c18.4032,1.6003,30.4041,0.9994,34.4661,0.2956c0.9792-0.1697,1.901-0.575,2.6746-1.1989 C64.912,39.5719,63,31,58,30c-3.1009-0.6202-9.1515,10.3756-12,14c-1.5905,2.0237-5,4-9,4"
       id="path2"
       style="fill:#ffffff" />
  </g>
  <g
     id="hair" />
  <g
     id="skin" />
  <g
     id="skin-shadow" />
  <g
     id="line">
    <line
       x1="55"
       x2="57"
       y1="27"
       y2="30"
       fill="none"
       stroke="#000000"
       stroke-linecap="round"
       stroke-linejoin="round"
       stroke-miterlimit="10"
       stroke-width="2"
       id="line2" />
    <line
       x1="58.8333"
       x2="61"
       y1="29.3333"
       y2="25"
       fill="none"
       stroke="#000000"
       stroke-linecap="round"
       stroke-linejoin="round"
       stroke-miterlimit="10"
       stroke-width="2"
       id="line3" />
    <path
       fill="none"
       stroke="#000000"
       stroke-linecap="round"
       stroke-linejoin="round"
       stroke-miterlimit="10"
       stroke-width="2"
       d="M23.0007,39c2.2654-7.9289,10-3,10-3c6,5,1,15-8,13s-9-12-6-17s14-9,21-1c1.8184,2.0781,3,5,1,12"
       id="path3" />
    <path
       fill="none"
       stroke="#000000"
       stroke-linecap="round"
       stroke-linejoin="round"
       stroke-miterlimit="10"
       stroke-width="2"
       d="M11,55c18.4032,1.6003,30.4041-0.0006,34.4661-0.7044c0.9792-0.1697,1.901-0.575,2.6746-1.1989C64.912,39.5719,63,31,58,30 c-3.1009-0.6202-9.1515,10.3756-12,14c-1.5905,2.0237-5,5-9,5"
       id="path4" />
  </g>
</svg>
