<?xml version="1.0" encoding="UTF-8" standalone="no"?>
<svg
   id="emoji"
   viewBox="0 0 72 72"
   version="1.1"
   sodipodi:docname="2622(1).svg"
   inkscape:version="1.4.2 (f4327f4, 2025-05-13)"
   xmlns:inkscape="http://www.inkscape.org/namespaces/inkscape"
   xmlns:sodipodi="http://sodipodi.sourceforge.net/DTD/sodipodi-0.dtd"
   xmlns="http://www.w3.org/2000/svg"
   xmlns:svg="http://www.w3.org/2000/svg">
  <defs
     id="defs3" />
  <sodipodi:namedview
     id="namedview3"
     pagecolor="#ffffff"
     bordercolor="#000000"
     borderopacity="0.25"
     inkscape:showpageshadow="2"
     inkscape:pageopacity="0.0"
     inkscape:pagecheckerboard="0"
     inkscape:deskcolor="#d1d1d1"
     inkscape:zoom="6.9861111"
     inkscape:cx="36"
     inkscape:cy="36"
     inkscape:window-width="1360"
     inkscape:window-height="705"
     inkscape:window-x="-8"
     inkscape:window-y="-8"
     inkscape:window-maximized="1"
     inkscape:current-layer="emoji" />
  <g
     id="color">
    <circle
       cx="36"
       cy="36"
       r="23"
       fill="#f4aa41"
       id="circle1"
       style="fill:#ffffff" />
  </g>
  <g
     id="line">
    <ellipse
       cx="35.96"
       cy="35.89"
       rx="3.281"
       ry="3.281"
       stroke="#000"
       stroke-miterlimit="10"
       stroke-width="1.25"
       id="ellipse1" />
    <path
       stroke="#000"
       stroke-miterlimit="10"
       stroke-width="1.254"
       d="m 23.09 28.58 a 14.76 14.76 0 0 1 3.496 -4.097 l 5.791 6.957 a 5.733 5.733 0 0 0 -2.167 3.753 l -8.921 -1.537 a 14.76 14.76 0 0 1 1.8 -5.076 z"
       id="path1" />
    <path
       stroke="#000"
       stroke-miterlimit="10"
       stroke-width="1.254"
       d="m 48.91 28.58 a 14.76 14.76 0 0 1 1.8 5.076 l -8.921 1.537 a 5.733 5.733 0 0 0 -2.167 -3.753 l 5.791 -6.957 a 14.76 14.76 0 0 1 3.496 4.097 z"
       id="path2" />
    <path
       stroke="#000"
       stroke-miterlimit="10"
       stroke-width="1.254"
       d="m 36 50.87 a 14.76 14.76 0 0 1 -5.296 -0.9794 l 3.129 -8.494 a 5.733 5.733 0 0 0 4.333 0 l 3.129 8.494 a 14.76 14.76 0 0 1 -5.296 0.9794 z"
       id="path3" />
  </g>
</svg>
