<?xml version="1.0" encoding="UTF-8" standalone="no"?>
<!-- Created with Inkscape (http://www.inkscape.org/) -->

<svg
   width="107.6963mm"
   height="53.029411mm"
   viewBox="0 0 107.6963 53.02941"
   version="1.1"
   id="svg1"
   xml:space="preserve"
   inkscape:version="1.4.2 (f4327f4, 2025-05-13)"
   sodipodi:docname="omnisMask.svg"
   xmlns:inkscape="http://www.inkscape.org/namespaces/inkscape"
   xmlns:sodipodi="http://sodipodi.sourceforge.net/DTD/sodipodi-0.dtd"
   xmlns="http://www.w3.org/2000/svg"
   xmlns:svg="http://www.w3.org/2000/svg"><sodipodi:namedview
     id="namedview1"
     pagecolor="#ffffff"
     bordercolor="#000000"
     borderopacity="0.25"
     inkscape:showpageshadow="2"
     inkscape:pageopacity="0.0"
     inkscape:pagecheckerboard="0"
     inkscape:deskcolor="#d1d1d1"
     inkscape:document-units="mm"
     showguides="true"
     inkscape:zoom="0.63370775"
     inkscape:cx="-162.53549"
     inkscape:cy="273.78551"
     inkscape:window-width="1360"
     inkscape:window-height="705"
     inkscape:window-x="-8"
     inkscape:window-y="-8"
     inkscape:window-maximized="1"
     inkscape:current-layer="layer1"><sodipodi:guide
       position="53.841209,210.40149"
       orientation="-1,0"
       id="guide2"
       inkscape:locked="false"
       inkscape:label=""
       inkscape:color="rgb(0,134,229)" /><sodipodi:guide
       position="53.841209,210.40149"
       orientation="0,1"
       id="guide3"
       inkscape:locked="false"
       inkscape:label=""
       inkscape:color="rgb(0,134,229)" /></sodipodi:namedview><defs
     id="defs1" /><g
     inkscape:label="Ebene 1"
     inkscape:groupmode="layer"
     id="layer1"
     transform="translate(-46.158792,-13.401493)"><rect
       style="fill:#000000;stroke:none;stroke-width:3.66613"
       id="rect1"
       width="107.69629"
       height="53.029415"
       x="46.158791"
       y="13.401493" /><path
       style="fill:#000000;fill-opacity:1;stroke:none;stroke-width:2.5;stroke-dasharray:none;stroke-opacity:1"
       d="m 47.989828,42.922678 c -2.379437,-3.401248 -2.445155,-7.917111 -0.165879,-11.399762 1.017366,-1.554486 1.667034,-2.092592 5.359932,-4.43947 26.206318,-16.654385 58.783279,-18.2024291 86.405489,-4.105927 5.76606,2.94259 11.00666,6.455398 12.35311,8.280359 1.54362,2.092158 2.29912,5.666556 1.716,8.118668 -0.74114,3.116631 -2.70604,5.431584 -13.79116,16.248148 -10.76597,10.505121 -10.81472,10.54103 -14.64009,10.784621 -2.15683,0.137357 -3.83305,-0.356474 -7.41061,-2.18319 C 112.59647,61.56072 106.39621,60.146363 100,60.161937 93.612912,60.177491 87.967591,61.496401 81.721167,64.432411 77.944608,66.207503 76.91183,66.487463 74.684262,66.339919 70.821899,66.084108 70.947168,66.179175 59.480779,54.800629 53.758434,49.122227 48.587561,43.777105 47.989828,42.922678 Z m 26.919224,16.743645 c 0.618837,0.109828 2.171565,-0.407145 4.038911,-1.344729 8.805569,-4.42124 20.275417,-6.043471 29.787887,-4.213054 3.75341,0.72224 9.85193,2.850244 12.88635,4.496517 1.49982,0.813693 2.803,1.241212 3.44261,1.129347 0.88068,-0.154004 2.52764,-1.675472 11.41283,-10.543206 9.0733,-9.055469 10.40756,-10.498721 10.57355,-11.436825 0.34612,-1.956522 -0.32656,-2.759983 -4.56425,-5.45161 -23.18433,-14.725869 -53.449071,-16.286617 -77.925747,-4.018627 -4.938071,2.475026 -10.824388,6.203513 -11.276368,7.142637 -0.163095,0.338869 -0.324821,1.147648 -0.359422,1.797297 l -0.0629,1.181182 10.520615,10.541327 c 8.901465,8.918989 10.675325,10.568796 11.525934,10.719744 z"
       id="path1-1"
       sodipodi:nodetypes="sssssssssssccssssssssssscsss" /><path
       style="fill:#ffffff;fill-opacity:1;stroke:#ffffff;stroke-width:18.8976;stroke-dasharray:none;stroke-opacity:1"
       d="m 459.10023,220.02764 c -54.30229,-25.02401 -104.74956,-25.30868 -160.35146,-0.90485 -6.20957,2.7254 -12.86283,4.95527 -14.78502,4.95527 -4.89169,0 -83.55591,-78.07764 -83.55591,-82.93286 0,-5.52647 5.55449,-11.08153 19.39015,-19.39213 38.23882,-22.968734 74.02339,-36.041705 114.9436,-41.991685 21.30315,-3.097573 63.20756,-3.124732 84.80498,-0.05496 42.10319,5.984378 84.18334,21.459665 118.98164,43.756405 12.83989,8.22706 16.93289,12.47933 16.93289,17.59183 0,3.38143 -73.74758,78.65827 -80.58073,82.25168 -3.66417,1.92691 -5.15701,1.61674 -15.78014,-3.2787 z"
       id="path4"
       transform="scale(0.26458333)" /></g></svg>
