<?xml version="1.0" encoding="UTF-8" standalone="no"?>
<!-- Created with Inkscape (http://www.inkscape.org/) -->

<svg
   width="1280"
   height="720"
   viewBox="0 0 1280 720"
   version="1.1"
   id="svg1"
   sodipodi:docname="omnis_splash.svg"
   inkscape:version="1.4.2 (f4327f4, 2025-05-13)"
   xmlns:inkscape="http://www.inkscape.org/namespaces/inkscape"
   xmlns:sodipodi="http://sodipodi.sourceforge.net/DTD/sodipodi-0.dtd"
   xmlns:xlink="http://www.w3.org/1999/xlink"
   xmlns="http://www.w3.org/2000/svg"
   xmlns:svg="http://www.w3.org/2000/svg">
  <sodipodi:namedview
     id="namedview1"
     pagecolor="#ffffff"
     bordercolor="#000000"
     borderopacity="0.25"
     inkscape:showpageshadow="2"
     inkscape:pageopacity="0.0"
     inkscape:pagecheckerboard="0"
     inkscape:deskcolor="#d1d1d1"
     inkscape:document-units="px"
     showguides="true"
     inkscape:zoom="0.35355339"
     inkscape:cx="326.68333"
     inkscape:cy="397.39401"
     inkscape:window-width="1360"
     inkscape:window-height="705"
     inkscape:window-x="-8"
     inkscape:window-y="-8"
     inkscape:window-maximized="1"
     inkscape:current-layer="layer1"
     showgrid="false">
    <sodipodi:guide
       position="640,360"
       orientation="-1,0"
       id="guide1"
       inkscape:locked="false"
       inkscape:label=""
       inkscape:color="rgb(0,134,229)" />
    <sodipodi:guide
       position="640,360"
       orientation="0,1"
       id="guide2"
       inkscape:locked="false"
       inkscape:label=""
       inkscape:color="rgb(0,134,229)" />
  </sodipodi:namedview>
  <defs
     id="defs1">
    <linearGradient
       id="linearGradient3">
      <stop
         style="stop-color:#e6e6e6;stop-opacity:1;"
         offset="0"
         id="stop5" />
      <stop
         style="stop-color:#4a194a;stop-opacity:1;"
         offset="1"
         id="stop6" />
    </linearGradient>
    <linearGradient
       id="linearGradient3-1">
      <stop
         style="stop-color:#ffffff;stop-opacity:0;"
         offset="0"
         id="stop3" />
      <stop
         style="stop-color:#191919;stop-opacity:1;"
         offset="1"
         id="stop4" />
    </linearGradient>
    <radialGradient
       inkscape:collect="always"
       xlink:href="#linearGradient3"
       id="radialGradient4"
       cx="639.99994"
       cy="360"
       fx="639.99994"
       fy="360"
       r="642.50016"
       gradientTransform="matrix(-1.2025515,1.0846811e-8,2.5035517e-7,-0.56420244,1280,563.11286)"
       gradientUnits="userSpaceOnUse" />
    <filter
       inkscape:collect="always"
       style="color-interpolation-filters:sRGB"
       id="filter6"
       x="-0.056249998"
       y="-0.1125"
       width="1.1125"
       height="1.225">
      <feGaussianBlur
         inkscape:collect="always"
         stdDeviation="9.3750002"
         id="feGaussianBlur6" />
    </filter>
    <filter
       inkscape:collect="always"
       style="color-interpolation-filters:sRGB"
       id="filter7"
       x="-0.11666675"
       y="-0.11666675"
       width="1.2333335"
       height="1.2333335">
      <feGaussianBlur
         inkscape:collect="always"
         stdDeviation="7.0865855"
         id="feGaussianBlur7" />
    </filter>
    <filter
       inkscape:collect="always"
       style="color-interpolation-filters:sRGB"
       id="filter8"
       x="-0.1125"
       y="-0.056249999"
       width="1.225"
       height="1.1125">
      <feGaussianBlur
         inkscape:collect="always"
         stdDeviation="9.3750002"
         id="feGaussianBlur8" />
    </filter>
    <filter
       inkscape:collect="always"
       style="color-interpolation-filters:sRGB"
       id="filter9"
       x="-0.1125"
       y="-0.056249998"
       width="1.225"
       height="1.1125">
      <feGaussianBlur
         inkscape:collect="always"
         stdDeviation="9.3750001"
         id="feGaussianBlur9" />
    </filter>
    <filter
       inkscape:collect="always"
       style="color-interpolation-filters:sRGB"
       id="filter10"
       x="-0.056249998"
       y="-0.1125"
       width="1.1125"
       height="1.225">
      <feGaussianBlur
         inkscape:collect="always"
         stdDeviation="9.3750001"
         id="feGaussianBlur10" />
    </filter>
    <filter
       inkscape:collect="always"
       style="color-interpolation-filters:sRGB"
       id="filter2"
       x="-0.014957922"
       y="-0.056081162"
       width="1.0299158"
       height="1.1121623">
      <feGaussianBlur
         inkscape:collect="always"
         stdDeviation="2.0334399"
         id="feGaussianBlur2" />
    </filter>
    <filter
       inkscape:collect="always"
       style="color-interpolation-filters:sRGB"
       id="filter13"
       x="-0.054859577"
       y="-0.2056829"
       width="1.1097192"
       height="1.4113658">
      <feGaussianBlur
         inkscape:collect="always"
         stdDeviation="12.709"
         id="feGaussianBlur13" />
    </filter>
  </defs>
  <g
     inkscape:label="Ebene 1"
     inkscape:groupmode="layer"
     id="layer1">
    <rect
       style="display:inline;fill:url(#radialGradient4);fill-opacity:1;stroke:none;stroke-width:3.77952756;stroke-dasharray:none"
       id="rect2"
       width="1539.2659"
       height="720"
       x="-259.26584"
       y="0" />
    <g
       id="g10"
       transform="matrix(0.8077762,0,0,0.79146225,-136.243,75.073591)"
       style="display:inline"
       sodipodi:insensitive="true">
      <circle
         style="fill:#4a194a;fill-opacity:1;stroke:#ff4eff;stroke-width:18.8976;stroke-dasharray:none;stroke-opacity:1;filter:url(#filter7)"
         id="path3"
         cx="706.91174"
         cy="-198.68515"
         r="113.38537"
         transform="rotate(45.056343)" />
      <circle
         style="opacity:0.5;fill:none;fill-opacity:1;stroke:#4e4e4e;stroke-width:18.8976;stroke-dasharray:none;stroke-opacity:1"
         id="circle7"
         cx="706.91174"
         cy="-198.68515"
         r="113.38537"
         transform="rotate(45.056343)" />
      <path
         style="display:inline;fill:#19194a;fill-opacity:1;stroke:none;stroke-width:18.7135;stroke-dasharray:none;stroke-opacity:1"
         d="m 719.71795,206.24141 c -53.36296,-24.97081 -102.93756,-25.25487 -157.57763,-0.90293 -6.10216,2.71961 -12.64033,4.94474 -14.52927,4.94474 -4.80707,0 -82.11052,-77.91165 -82.11052,-82.75654 0,-5.51472 5.4584,-11.05798 19.05473,-19.35091 37.57735,-22.9199 72.7429,-35.96508 112.95525,-41.9024 20.93465,-3.09099 62.11416,-3.11809 83.33799,-0.0549 41.37486,5.97166 82.72709,21.41405 116.92346,43.66338 12.61777,8.20958 16.63998,12.4528 16.63998,17.55443 0,3.37425 -72.47188,78.49104 -79.18681,82.07681 -3.6008,1.92281 -5.06782,1.6133 -15.50718,-3.27173 z"
         id="path4"
         inkscape:label="Filling" />
      <path
         style="display:inline;fill:#4e4eff;fill-opacity:1;stroke:none;stroke-width:9.35675;stroke-dasharray:none;stroke-opacity:1;filter:url(#filter6)"
         d="m 446.80074,148.5641 c -8.83759,-12.82778 -9.08167,-29.85932 -0.6161,-42.99411 3.77865,-5.86273 6.19161,-7.8922 19.90758,-16.74343 97.33414,-62.81188 218.32978,-68.65032 320.92275,-15.48547 21.41602,11.09796 40.88036,24.34648 45.88128,31.22931 5.73324,7.89056 8.53927,21.37137 6.37349,30.61949 -2.75271,11.75435 -10.05063,20.48518 -51.22243,61.27977 -39.98638,39.61997 -40.16745,39.75541 -54.37545,40.67411 -8.01079,0.51804 -14.2365,-1.34444 -27.52411,-8.23388 -19.38841,-10.05256 -42.41707,-15.3868 -66.17355,-15.32806 -23.72259,0.0587 -44.69014,5.03292 -67.89028,16.10606 -14.0267,6.69475 -17.86259,7.75061 -26.13611,7.19415 -14.34539,-0.96479 -13.88012,-0.60624 -56.46798,-43.52034 -21.25364,-21.41605 -40.45903,-41.57513 -42.67909,-44.7976 z m 99.98197,63.14853 c 2.29845,0.41421 8.06552,-1.53555 15.00112,-5.07164 32.70518,-16.67467 75.30589,-22.7929 110.63662,-15.8895 13.94072,2.72393 36.5915,10.74967 47.86179,16.95858 5.57057,3.06884 10.41078,4.68122 12.78636,4.25932 3.271,-0.58082 9.38805,-6.31903 42.38896,-39.76361 33.69955,-34.15263 38.65519,-39.59585 39.27171,-43.1339 1.28557,-7.37901 -1.21289,-10.40925 -16.95228,-20.56071 C 711.66695,52.97268 599.25923,47.08633 508.34924,93.35495 c -18.34073,9.33455 -40.20338,23.39651 -41.8821,26.9384 -0.60576,1.27805 -1.20643,4.32835 -1.33495,6.77849 l -0.23361,4.45482 39.07512,39.75654 c 33.06136,33.63789 39.64974,39.86013 42.80902,40.42943 z"
         id="path6"
         sodipodi:nodetypes="sssssssssssccssssssssssscsss"
         inkscape:label="whiteline" />
      <path
         style="display:inline;opacity:0.5;fill:#4e4e4e;fill-opacity:1;stroke:none;stroke-width:9.35675;stroke-dasharray:none;stroke-opacity:1"
         d="m 446.80074,148.5641 c -8.83759,-12.82778 -9.08167,-29.85932 -0.6161,-42.99411 3.77865,-5.86273 6.19161,-7.8922 19.90758,-16.74343 97.33414,-62.81188 218.32978,-68.65032 320.92275,-15.48547 21.41602,11.09796 40.88036,24.34648 45.88128,31.22931 5.73324,7.89056 8.53927,21.37137 6.37349,30.61949 -2.75271,11.75435 -10.05063,20.48518 -51.22243,61.27977 -39.98638,39.61997 -40.16745,39.75541 -54.37545,40.67411 -8.01079,0.51804 -14.2365,-1.34444 -27.52411,-8.23388 -19.38841,-10.05256 -42.41707,-15.3868 -66.17355,-15.32806 -23.72259,0.0587 -44.69014,5.03292 -67.89028,16.10606 -14.0267,6.69475 -17.86259,7.75061 -26.13611,7.19415 -14.34539,-0.96479 -13.88012,-0.60624 -56.46798,-43.52034 -21.25364,-21.41605 -40.45903,-41.57513 -42.67909,-44.7976 z m 99.98197,63.14853 c 2.29845,0.41421 8.06552,-1.53555 15.00112,-5.07164 32.70518,-16.67467 75.30589,-22.7929 110.63662,-15.8895 13.94072,2.72393 36.5915,10.74967 47.86179,16.95858 5.57057,3.06884 10.41078,4.68122 12.78636,4.25932 3.271,-0.58082 9.38805,-6.31903 42.38896,-39.76361 33.69955,-34.15263 38.65519,-39.59585 39.27171,-43.1339 1.28557,-7.37901 -1.21289,-10.40925 -16.95228,-20.56071 C 711.66695,52.97268 599.25923,47.08633 508.34924,93.35495 c -18.34073,9.33455 -40.20338,23.39651 -41.8821,26.9384 -0.60576,1.27805 -1.20643,4.32835 -1.33495,6.77849 l -0.23361,4.45482 39.07512,39.75654 c 33.06136,33.63789 39.64974,39.86013 42.80902,40.42943 z"
         id="path15"
         sodipodi:nodetypes="sssssssssssccssssssssssscsss"
         inkscape:label="whiteline" />
      <path
         style="display:inline;fill:#4a1919;fill-opacity:1;stroke:none;stroke-width:18.7135;stroke-dasharray:none;stroke-opacity:1"
         d="m 793.75859,439.71795 c 24.97081,-53.36296 25.25487,-102.93756 0.90293,-157.57763 -2.71961,-6.10216 -4.94474,-12.64033 -4.94474,-14.52927 0,-4.80707 77.91165,-82.11052 82.75654,-82.11052 5.51472,0 11.05798,5.45841 19.35091,19.05473 22.9199,37.57735 35.96508,72.7429 41.9024,112.95525 3.09099,20.93465 3.11809,62.11416 0.0548,83.33799 -5.97166,41.37486 -21.41405,82.72709 -43.66338,116.92346 -8.20958,12.61777 -12.4528,16.63998 -17.55443,16.63998 -3.37425,0 -78.49104,-72.47188 -82.07681,-79.18681 -1.92281,-3.6008 -1.6133,-5.06782 3.27173,-15.50718 z"
         id="path4-1"
         inkscape:label="Filling" />
      <path
         style="display:inline;fill:#ff4e4e;fill-opacity:1;stroke:none;stroke-width:9.35675;stroke-dasharray:none;stroke-opacity:1;filter:url(#filter8)"
         d="m 851.4359,166.80074 c 12.82778,-8.83758 29.85932,-9.08167 42.99411,-0.6161 5.86273,3.77865 7.8922,6.19161 16.74343,19.90758 62.81188,97.33414 68.65032,218.32978 15.48547,320.92275 -11.09796,21.41602 -24.34648,40.88036 -31.22931,45.88128 -7.89056,5.73324 -21.37137,8.53927 -30.61949,6.37349 -11.75435,-2.75271 -20.48518,-10.05063 -61.27977,-51.22243 -39.61997,-39.98638 -39.75541,-40.16745 -40.67411,-54.37545 -0.51804,-8.01079 1.34444,-14.2365 8.23388,-27.52411 10.05256,-19.38841 15.3868,-42.41707 15.32806,-66.17355 -0.0587,-23.72259 -5.03292,-44.69014 -16.10606,-67.89028 -6.69474,-14.0267 -7.75061,-17.86259 -7.19415,-26.13611 0.96479,-14.34538 0.60624,-13.88012 43.52034,-56.46798 21.41605,-21.25364 41.57514,-40.45902 44.7976,-42.67909 z m -63.14853,99.98197 c -0.41421,2.29846 1.53555,8.06552 5.07164,15.00112 16.67467,32.70518 22.7929,75.30589 15.8895,110.63662 -2.72393,13.94072 -10.74967,36.5915 -16.95858,47.86179 -3.06884,5.57057 -4.68122,10.41078 -4.25932,12.78636 0.58082,3.271 6.31903,9.38805 39.76361,42.38896 34.15264,33.69955 39.59585,38.65519 43.1339,39.27171 7.37901,1.28557 10.40925,-1.21289 20.56071,-16.95228 55.53849,-86.11004 61.42484,-198.51776 15.15622,-289.42775 -9.33455,-18.34073 -23.39651,-40.20338 -26.9384,-41.8821 -1.27805,-0.60576 -4.32835,-1.20643 -6.77849,-1.33495 l -4.45482,-0.23361 -39.75654,39.07512 c -33.63789,33.06136 -39.86013,39.64974 -40.42943,42.80902 z"
         id="path15-5"
         sodipodi:nodetypes="sssssssssssccssssssssssscsss"
         inkscape:label="whiteline" />
      <path
         style="display:inline;opacity:0.5;fill:#4e4e4e;fill-opacity:1;stroke:none;stroke-width:9.35675;stroke-dasharray:none;stroke-opacity:1"
         d="m 851.4359,166.80074 c 12.82778,-8.83758 29.85932,-9.08167 42.99411,-0.6161 5.86273,3.77865 7.8922,6.19161 16.74343,19.90758 62.81188,97.33414 68.65032,218.32978 15.48547,320.92275 -11.09796,21.41602 -24.34648,40.88036 -31.22931,45.88128 -7.89056,5.73324 -21.37137,8.53927 -30.61949,6.37349 -11.75435,-2.75271 -20.48518,-10.05063 -61.27977,-51.22243 -39.61997,-39.98638 -39.75541,-40.16745 -40.67411,-54.37545 -0.51804,-8.01079 1.34444,-14.2365 8.23388,-27.52411 10.05256,-19.38841 15.3868,-42.41707 15.32806,-66.17355 -0.0587,-23.72259 -5.03292,-44.69014 -16.10606,-67.89028 -6.69474,-14.0267 -7.75061,-17.86259 -7.19415,-26.13611 0.96479,-14.34538 0.60624,-13.88012 43.52034,-56.46798 21.41605,-21.25364 41.57514,-40.45902 44.7976,-42.67909 z m -63.14853,99.98197 c -0.41421,2.29846 1.53555,8.06552 5.07164,15.00112 16.67467,32.70518 22.7929,75.30589 15.8895,110.63662 -2.72393,13.94072 -10.74967,36.5915 -16.95858,47.86179 -3.06884,5.57057 -4.68122,10.41078 -4.25932,12.78636 0.58082,3.271 6.31903,9.38805 39.76361,42.38896 34.15264,33.69955 39.59585,38.65519 43.1339,39.27171 7.37901,1.28557 10.40925,-1.21289 20.56071,-16.95228 55.53849,-86.11004 61.42484,-198.51776 15.15622,-289.42775 -9.33455,-18.34073 -23.39651,-40.20338 -26.9384,-41.8821 -1.27805,-0.60576 -4.32835,-1.20643 -6.77849,-1.33495 l -4.45482,-0.23361 -39.75654,39.07512 c -33.63789,33.06136 -39.86013,39.64974 -40.42943,42.80902 z"
         id="path8"
         sodipodi:nodetypes="sssssssssssccssssssssssscsss"
         inkscape:label="whiteline" />
      <path
         style="display:inline;fill:#4a4a19;fill-opacity:1;stroke:none;stroke-width:18.7135;stroke-dasharray:none;stroke-opacity:1"
         d="m 560.28204,513.7586 c 53.36296,24.97079 102.93756,25.25486 157.57764,0.90293 6.10216,-2.71961 12.64033,-4.94474 14.52927,-4.94474 4.80707,0 82.11052,77.91163 82.11052,82.75653 0,5.51472 -5.4584,11.05797 -19.05473,19.3509 -37.57735,22.9199 -72.7429,35.96509 -112.95526,41.90241 -20.93465,3.09099 -62.11416,3.11809 -83.33799,0.0549 -41.37486,-5.97166 -82.72709,-21.41405 -116.92345,-43.66339 -12.61777,-8.20957 -16.63998,-12.4528 -16.63998,-17.55443 0,-3.37424 72.47187,-78.49103 79.1868,-82.0768 3.6008,-1.92281 5.06782,-1.6133 15.50718,3.27174 z"
         id="path4-7"
         inkscape:label="Filling" />
      <path
         style="display:inline;fill:#ffff4e;fill-opacity:1;stroke:none;stroke-width:9.35675;stroke-dasharray:none;stroke-opacity:1;filter:url(#filter10)"
         d="m 833.19926,571.43589 c 8.83759,12.82779 9.08167,29.85933 0.6161,42.99412 -3.77865,5.86273 -6.19161,7.89219 -19.90758,16.74342 -97.33414,62.81189 -218.32979,68.65033 -320.92275,15.48548 -21.41602,-11.09796 -40.88036,-24.34649 -45.88128,-31.22931 -5.73324,-7.89056 -8.53927,-21.37137 -6.37349,-30.6195 2.75271,-11.75435 10.05063,-20.48517 51.22243,-61.27975 39.98637,-39.61998 40.16744,-39.75541 54.37544,-40.67411 8.01079,-0.51804 14.2365,1.34444 27.52411,8.23388 19.38841,10.05256 42.41707,15.38679 66.17355,15.32806 23.72259,-0.0587 44.69014,-5.03292 67.89029,-16.10606 14.0267,-6.69475 17.86259,-7.75062 26.13611,-7.19416 14.34539,0.96479 13.88012,0.60625 56.46798,43.52034 21.25364,21.41605 40.45903,41.57513 42.67909,44.79759 z m -99.98197,-63.14851 c -2.29845,-0.41422 -8.06552,1.53554 -15.00112,5.07163 -32.70519,16.67467 -75.3059,22.7929 -110.63663,15.8895 -13.94072,-2.72393 -36.5915,-10.74967 -47.86179,-16.95857 -5.57057,-3.06884 -10.41078,-4.68122 -12.78636,-4.25933 -3.271,0.58083 -9.38805,6.31903 -42.38896,39.76361 -33.69954,34.15263 -38.65518,39.59585 -39.2717,43.1339 -1.28557,7.37901 1.21289,10.40925 16.95228,20.5607 86.11003,55.5385 198.51775,61.42485 289.42775,15.15622 18.34073,-9.33454 40.20338,-23.3965 41.8821,-26.9384 0.60576,-1.27804 1.20643,-4.32834 1.33495,-6.77849 l 0.23361,-4.45482 -39.07512,-39.75653 c -33.06136,-33.63788 -39.64974,-39.86012 -42.80902,-40.42942 z"
         id="path10"
         sodipodi:nodetypes="sssssssssssccssssssssssscsss"
         inkscape:label="whiteline" />
      <path
         style="display:inline;opacity:0.5;fill:#4e4e4e;fill-opacity:1;stroke:none;stroke-width:9.35675;stroke-dasharray:none;stroke-opacity:1"
         d="m 833.19926,571.43589 c 8.83759,12.82779 9.08167,29.85933 0.6161,42.99412 -3.77865,5.86273 -6.19161,7.89219 -19.90758,16.74342 -97.33414,62.81189 -218.32979,68.65033 -320.92275,15.48548 -21.41602,-11.09796 -40.88036,-24.34649 -45.88128,-31.22931 -5.73324,-7.89056 -8.53927,-21.37137 -6.37349,-30.6195 2.75271,-11.75435 10.05063,-20.48517 51.22243,-61.27975 39.98637,-39.61998 40.16744,-39.75541 54.37544,-40.67411 8.01079,-0.51804 14.2365,1.34444 27.52411,8.23388 19.38841,10.05256 42.41707,15.38679 66.17355,15.32806 23.72259,-0.0587 44.69014,-5.03292 67.89029,-16.10606 14.0267,-6.69475 17.86259,-7.75062 26.13611,-7.19416 14.34539,0.96479 13.88012,0.60625 56.46798,43.52034 21.25364,21.41605 40.45903,41.57513 42.67909,44.79759 z m -99.98197,-63.14851 c -2.29845,-0.41422 -8.06552,1.53554 -15.00112,5.07163 -32.70519,16.67467 -75.3059,22.7929 -110.63663,15.8895 -13.94072,-2.72393 -36.5915,-10.74967 -47.86179,-16.95857 -5.57057,-3.06884 -10.41078,-4.68122 -12.78636,-4.25933 -3.271,0.58083 -9.38805,6.31903 -42.38896,39.76361 -33.69954,34.15263 -38.65518,39.59585 -39.2717,43.1339 -1.28557,7.37901 1.21289,10.40925 16.95228,20.5607 86.11003,55.5385 198.51775,61.42485 289.42775,15.15622 18.34073,-9.33454 40.20338,-23.3965 41.8821,-26.9384 0.60576,-1.27804 1.20643,-4.32834 1.33495,-6.77849 l 0.23361,-4.45482 -39.07512,-39.75653 c -33.06136,-33.63788 -39.64974,-39.86012 -42.80902,-40.42942 z"
         id="path15-6"
         sodipodi:nodetypes="sssssssssssccssssssssssscsss"
         inkscape:label="whiteline" />
      <path
         style="display:inline;fill:#194a19;fill-opacity:1;stroke:none;stroke-width:18.7135;stroke-dasharray:none;stroke-opacity:1"
         d="m 486.24141,280.28205 c -24.9708,53.36296 -25.25487,102.93756 -0.90293,157.57763 2.71961,6.10216 4.94474,12.64033 4.94474,14.52927 0,4.80707 -77.91164,82.11052 -82.75653,82.11052 -5.51472,0 -11.05798,-5.4584 -19.35091,-19.05473 -22.9199,-37.57735 -35.96508,-72.7429 -41.90241,-112.95525 -3.09098,-20.93465 -3.11808,-62.11416 -0.0548,-83.33799 5.97166,-41.37486 21.41405,-82.72709 43.66338,-116.92346 8.20957,-12.61777 12.4528,-16.63998 17.55443,-16.63998 3.37425,0 78.49104,72.47188 82.07681,79.18681 1.92281,3.6008 1.6133,5.06782 -3.27174,15.50718 z"
         id="path4-2"
         inkscape:label="Filling" />
      <path
         style="display:inline;fill:#4eff4e;fill-opacity:1;stroke:none;stroke-width:9.35675;stroke-dasharray:none;stroke-opacity:1;filter:url(#filter9)"
         d="m 428.56411,553.19926 c -12.82778,8.83759 -29.85932,9.08167 -42.99411,0.6161 -5.86274,-3.77865 -7.8922,-6.19161 -16.74343,-19.90758 C 306.01469,436.57364 300.17625,315.578 353.3411,212.98503 c 11.09795,-21.41602 24.34648,-40.88036 31.22931,-45.88128 7.89056,-5.73324 21.37137,-8.53927 30.61949,-6.37349 11.75435,2.75271 20.48518,10.05063 61.27976,51.22243 39.61998,39.98638 39.75541,40.16745 40.67411,54.37545 0.51804,8.01079 -1.34444,14.2365 -8.23388,27.52411 -10.05256,19.38841 -15.38679,42.41707 -15.32806,66.17355 0.0587,23.72259 5.03293,44.69014 16.10606,67.89028 6.69475,14.0267 7.75062,17.86259 7.19416,26.13611 -0.96479,14.34539 -0.60625,13.88012 -43.52034,56.46798 -21.41605,21.25364 -41.57514,40.45903 -44.7976,42.67909 z m 63.14852,-99.98197 c 0.41422,-2.29845 -1.53554,-8.06552 -5.07163,-15.00112 -16.67467,-32.70518 -22.79291,-75.30589 -15.8895,-110.63662 2.72392,-13.94072 10.74967,-36.5915 16.95857,-47.86179 3.06884,-5.57057 4.68122,-10.41078 4.25933,-12.78636 -0.58083,-3.271 -6.31903,-9.38805 -39.76362,-42.38896 -34.15263,-33.69955 -39.59584,-38.65519 -43.13389,-39.27171 -7.37901,-1.28557 -10.40926,1.21289 -20.56071,16.95228 -55.5385,86.11004 -61.42485,198.51776 -15.15622,289.42775 9.33454,18.34073 23.3965,40.20338 26.9384,41.8821 1.27804,0.60576 4.32835,1.20643 6.77849,1.33495 l 4.45482,0.23361 39.75654,-39.07512 c 33.63789,-33.06136 39.86012,-39.64974 40.42942,-42.80902 z"
         id="path9"
         sodipodi:nodetypes="sssssssssssccssssssssssscsss"
         inkscape:label="whiteline" />
      <path
         style="display:inline;opacity:0.5;fill:#4e4e4e;fill-opacity:1;stroke:none;stroke-width:9.35675;stroke-dasharray:none;stroke-opacity:1"
         d="m 428.56411,553.19926 c -12.82778,8.83759 -29.85932,9.08167 -42.99411,0.6161 -5.86274,-3.77865 -7.8922,-6.19161 -16.74343,-19.90758 C 306.01469,436.57364 300.17625,315.578 353.3411,212.98503 c 11.09795,-21.41602 24.34648,-40.88036 31.22931,-45.88128 7.89056,-5.73324 21.37137,-8.53927 30.61949,-6.37349 11.75435,2.75271 20.48518,10.05063 61.27976,51.22243 39.61998,39.98638 39.75541,40.16745 40.67411,54.37545 0.51804,8.01079 -1.34444,14.2365 -8.23388,27.52411 -10.05256,19.38841 -15.38679,42.41707 -15.32806,66.17355 0.0587,23.72259 5.03293,44.69014 16.10606,67.89028 6.69475,14.0267 7.75062,17.86259 7.19416,26.13611 -0.96479,14.34539 -0.60625,13.88012 -43.52034,56.46798 -21.41605,21.25364 -41.57514,40.45903 -44.7976,42.67909 z m 63.14852,-99.98197 c 0.41422,-2.29845 -1.53554,-8.06552 -5.07163,-15.00112 -16.67467,-32.70518 -22.79291,-75.30589 -15.8895,-110.63662 2.72392,-13.94072 10.74967,-36.5915 16.95857,-47.86179 3.06884,-5.57057 4.68122,-10.41078 4.25933,-12.78636 -0.58083,-3.271 -6.31903,-9.38805 -39.76362,-42.38896 -34.15263,-33.69955 -39.59584,-38.65519 -43.13389,-39.27171 -7.37901,-1.28557 -10.40926,1.21289 -20.56071,16.95228 -55.5385,86.11004 -61.42485,198.51776 -15.15622,289.42775 9.33454,18.34073 23.3965,40.20338 26.9384,41.8821 1.27804,0.60576 4.32835,1.20643 6.77849,1.33495 l 4.45482,0.23361 39.75654,-39.07512 c 33.63789,-33.06136 39.86012,-39.64974 40.42942,-42.80902 z"
         id="path15-3"
         sodipodi:nodetypes="sssssssssssccssssssssssscsss"
         inkscape:label="whiteline" />
    </g>
    <text
       xml:space="preserve"
       style="font-style:normal;font-variant:normal;font-weight:normal;font-stretch:normal;font-size:192px;font-family:OpenDyslexic3;-inkscape-font-specification:OpenDyslexic3;text-align:start;letter-spacing:4px;writing-mode:lr-tb;direction:ltr;text-anchor:start;opacity:1;mix-blend-mode:normal;fill:#191919;stroke:#00000f;stroke-width:9.44882;stroke-dasharray:none;stroke-opacity:1;filter:url(#filter2);fill-opacity:1"
       x="295.32281"
       y="442.94385"
       id="text1"><tspan
         sodipodi:role="line"
         id="tspan1"
         x="295.32281"
         y="442.94385">Omnis</tspan></text>
    <text
       xml:space="preserve"
       style="font-style:normal;font-variant:normal;font-weight:normal;font-stretch:normal;font-size:192px;font-family:OpenDyslexic3;-inkscape-font-specification:OpenDyslexic3;text-align:start;letter-spacing:4px;writing-mode:lr-tb;direction:ltr;text-anchor:start;opacity:1;mix-blend-mode:normal;fill:#191919;stroke:#00000f;stroke-width:9.44882;stroke-dasharray:none;stroke-opacity:1;filter:url(#filter13);fill-opacity:1"
       x="295.32281"
       y="442.94385"
       id="text13"><tspan
         sodipodi:role="line"
         id="tspan13"
         x="295.32281"
         y="442.94385">Omnis</tspan></text>
    <text
       xml:space="preserve"
       style="font-style:normal;font-variant:normal;font-weight:normal;font-stretch:normal;font-size:192px;font-family:OpenDyslexic3;-inkscape-font-specification:OpenDyslexic3;text-align:start;letter-spacing:4px;writing-mode:lr-tb;direction:ltr;text-anchor:start;opacity:1;mix-blend-mode:normal;fill:#e6e6e6;stroke:none;stroke-width:3.77953;stroke-dasharray:none;stroke-opacity:1;fill-opacity:1"
       x="295.32281"
       y="442.94385"
       id="text2"><tspan
         sodipodi:role="line"
         id="tspan2"
         x="295.32281"
         y="442.94385">Omnis</tspan></text>
  </g>
</svg>
