<?xml version="1.0" encoding="UTF-8" standalone="no"?>
<!-- Created with Inkscape (http://www.inkscape.org/) -->

<svg
   width="105.83334mm"
   height="52.916668mm"
   viewBox="0 0 105.83334 52.916667"
   version="1.1"
   id="svg1"
   xml:space="preserve"
   inkscape:version="1.4.2 (f4327f4, 2025-05-13)"
   sodipodi:docname="shapes_stars.svg"
   xmlns:inkscape="http://www.inkscape.org/namespaces/inkscape"
   xmlns:sodipodi="http://sodipodi.sourceforge.net/DTD/sodipodi-0.dtd"
   xmlns="http://www.w3.org/2000/svg"
   xmlns:svg="http://www.w3.org/2000/svg"><sodipodi:namedview
     id="namedview1"
     pagecolor="#ffffff"
     bordercolor="#000000"
     borderopacity="0.25"
     inkscape:showpageshadow="2"
     inkscape:pageopacity="0.0"
     inkscape:pagecheckerboard="0"
     inkscape:deskcolor="#d1d1d1"
     inkscape:document-units="mm"
     showguides="true"
     inkscape:zoom="1.2674155"
     inkscape:cx="203.95837"
     inkscape:cy="90.341328"
     inkscape:window-width="1360"
     inkscape:window-height="705"
     inkscape:window-x="-8"
     inkscape:window-y="-8"
     inkscape:window-maximized="1"
     inkscape:current-layer="layer1"
     showgrid="false"><sodipodi:guide
       position="52.916666,26.458335"
       orientation="-1,0"
       id="guide2"
       inkscape:locked="false"
       inkscape:label=""
       inkscape:color="rgb(0,134,229)" /><sodipodi:guide
       position="53.84121,210.40149"
       orientation="0,1"
       id="guide3"
       inkscape:locked="false"
       inkscape:label=""
       inkscape:color="rgb(0,134,229)" /><sodipodi:guide
       position="52.905087,26.44508"
       orientation="0,-1"
       id="guide4"
       inkscape:locked="false" /></sodipodi:namedview><defs
     id="defs1" /><g
     inkscape:label="Ebene 1"
     inkscape:groupmode="layer"
     id="layer1"
     transform="translate(-46.158791,-13.401494)"><path
       sodipodi:type="star"
       style="fill:none;stroke:#ffffff;stroke-width:1.77073;stroke-dasharray:none;stroke-opacity:1"
       id="path1"
       inkscape:flatsided="false"
       sodipodi:sides="5"
       sodipodi:cx="99.075455"
       sodipodi:cy="7.7650237"
       sodipodi:r1="5.6364703"
       sodipodi:r2="2.8182349"
       sodipodi:arg1="-1.5707963"
       sodipodi:arg2="-0.9424778"
       inkscape:rounded="0"
       inkscape:randomized="0"
       d="m 99.075455,2.1285534 1.656515,3.3564704 3.70409,0.5382349 -2.6803,2.6126475 0.63273,3.6891178 -3.313035,-1.741765 -3.313035,1.741765 0.632734,-3.6891178 -2.680301,-2.6126478 3.704085,-0.5382346 z"
       transform="matrix(0.72856117,0,0,-0.7660411,-12.79454,26.72861)"
       inkscape:transform-center-y="0.41230977" /><path
       sodipodi:type="star"
       style="fill:none;stroke:#ffffff;stroke-width:1.77073;stroke-dasharray:none;stroke-opacity:1"
       id="path2"
       inkscape:flatsided="false"
       sodipodi:sides="5"
       sodipodi:cx="99.075455"
       sodipodi:cy="7.7650237"
       sodipodi:r1="5.6364703"
       sodipodi:r2="2.8182349"
       sodipodi:arg1="-1.5707963"
       sodipodi:arg2="-0.9424778"
       inkscape:rounded="0"
       inkscape:randomized="0"
       d="m 99.075455,2.1285534 1.656515,3.3564704 3.70409,0.5382349 -2.6803,2.6126475 0.63273,3.6891178 -3.313035,-1.741765 -3.313035,1.741765 0.632734,-3.6891178 -2.680301,-2.6126478 3.704085,-0.5382346 z"
       transform="matrix(0.72856117,0,0,-0.7660411,3.0804597,26.72861)"
       inkscape:transform-center-y="0.41230977" /><path
       sodipodi:type="star"
       style="fill:none;stroke:#ffffff;stroke-width:1.77073;stroke-dasharray:none;stroke-opacity:1"
       id="path3"
       inkscape:flatsided="false"
       sodipodi:sides="5"
       sodipodi:cx="99.075455"
       sodipodi:cy="7.7650237"
       sodipodi:r1="5.6364703"
       sodipodi:r2="2.8182349"
       sodipodi:arg1="-1.5707963"
       sodipodi:arg2="-0.9424778"
       inkscape:rounded="0"
       inkscape:randomized="0"
       d="m 99.075455,2.1285534 1.656515,3.3564704 3.70409,0.5382349 -2.6803,2.6126475 0.63273,3.6891178 -3.313035,-1.741765 -3.313035,1.741765 0.632734,-3.6891178 -2.680301,-2.6126478 3.704085,-0.5382346 z"
       transform="matrix(0.72856117,0,0,-0.7660411,18.95546,26.72861)"
       inkscape:transform-center-y="0.41230977" /><path
       sodipodi:type="star"
       style="fill:none;stroke:#ffffff;stroke-width:1.77073;stroke-dasharray:none;stroke-opacity:1"
       id="path4"
       inkscape:flatsided="false"
       sodipodi:sides="5"
       sodipodi:cx="99.075455"
       sodipodi:cy="7.7650237"
       sodipodi:r1="5.6364703"
       sodipodi:r2="2.8182349"
       sodipodi:arg1="-1.5707963"
       sodipodi:arg2="-0.9424778"
       inkscape:rounded="0"
       inkscape:randomized="0"
       d="m 99.075455,2.1285534 1.656515,3.3564704 3.70409,0.5382349 -2.6803,2.6126475 0.63273,3.6891178 -3.313035,-1.741765 -3.313035,1.741765 0.632734,-3.6891178 -2.680301,-2.6126478 3.704085,-0.5382346 z"
       transform="matrix(0.72856117,0,0,-0.7660411,34.83046,26.72861)"
       inkscape:transform-center-y="0.41230977" /><path
       sodipodi:type="star"
       style="fill:none;stroke:#ffffff;stroke-width:1.77073;stroke-dasharray:none;stroke-opacity:1"
       id="path5"
       inkscape:flatsided="false"
       sodipodi:sides="5"
       sodipodi:cx="99.075455"
       sodipodi:cy="7.7650237"
       sodipodi:r1="5.6364703"
       sodipodi:r2="2.8182349"
       sodipodi:arg1="-1.5707963"
       sodipodi:arg2="-0.9424778"
       inkscape:rounded="0"
       inkscape:randomized="0"
       d="m 99.075455,2.1285534 1.656515,3.3564704 3.70409,0.5382349 -2.6803,2.6126475 0.63273,3.6891178 -3.313035,-1.741765 -3.313035,1.741765 0.632734,-3.6891178 -2.680301,-2.6126478 3.704085,-0.5382346 z"
       transform="matrix(0.72856117,0,0,-0.7660411,50.70546,26.72861)"
       inkscape:transform-center-y="0.41230977" /><path
       sodipodi:type="star"
       style="fill:none;stroke:#ffffff;stroke-width:1.77073;stroke-dasharray:none;stroke-opacity:1"
       id="path6"
       inkscape:flatsided="false"
       sodipodi:sides="5"
       sodipodi:cx="99.075455"
       sodipodi:cy="7.7650237"
       sodipodi:r1="5.6364703"
       sodipodi:r2="2.8182349"
       sodipodi:arg1="-1.5707963"
       sodipodi:arg2="-0.9424778"
       inkscape:rounded="0"
       inkscape:randomized="0"
       d="m 99.075455,2.1285534 1.656515,3.3564704 3.70409,0.5382349 -2.6803,2.6126475 0.63273,3.6891178 -3.313035,-1.741765 -3.313035,1.741765 0.632734,-3.6891178 -2.680301,-2.6126478 3.704085,-0.5382346 z"
       transform="matrix(0.72856117,0,0,-0.7660411,66.58046,26.72861)"
       inkscape:transform-center-y="0.41230977" /><path
       sodipodi:type="star"
       style="fill:none;stroke:#ffffff;stroke-width:1.77073;stroke-dasharray:none;stroke-opacity:1"
       id="path7"
       inkscape:flatsided="false"
       sodipodi:sides="5"
       sodipodi:cx="99.075455"
       sodipodi:cy="7.7650237"
       sodipodi:r1="5.6364703"
       sodipodi:r2="2.8182349"
       sodipodi:arg1="-1.5707963"
       sodipodi:arg2="-0.9424778"
       inkscape:rounded="0"
       inkscape:randomized="0"
       d="m 99.075455,2.1285534 1.656515,3.3564704 3.70409,0.5382349 -2.6803,2.6126475 0.63273,3.6891178 -3.313035,-1.741765 -3.313035,1.741765 0.632734,-3.6891178 -2.680301,-2.6126478 3.704085,-0.5382346 z"
       transform="matrix(0.72856117,0,0,-0.7660411,-20.73204,42.60361)"
       inkscape:transform-center-y="0.41230977" /><path
       sodipodi:type="star"
       style="fill:none;stroke:#ffffff;stroke-width:1.77073;stroke-dasharray:none;stroke-opacity:1"
       id="path8"
       inkscape:flatsided="false"
       sodipodi:sides="5"
       sodipodi:cx="99.075455"
       sodipodi:cy="7.7650237"
       sodipodi:r1="5.6364703"
       sodipodi:r2="2.8182349"
       sodipodi:arg1="-1.5707963"
       sodipodi:arg2="-0.9424778"
       inkscape:rounded="0"
       inkscape:randomized="0"
       d="m 99.075455,2.1285534 1.656515,3.3564704 3.70409,0.5382349 -2.6803,2.6126475 0.63273,3.6891178 -3.313035,-1.741765 -3.313035,1.741765 0.632734,-3.6891178 -2.680301,-2.6126478 3.704085,-0.5382346 z"
       transform="matrix(0.72856117,0,0,0.7660411,-4.8570403,31.824255)"
       inkscape:transform-center-y="-0.41230984" /><path
       sodipodi:type="star"
       style="fill:none;stroke:#ffffff;stroke-width:1.77073;stroke-dasharray:none;stroke-opacity:1"
       id="path9"
       inkscape:flatsided="false"
       sodipodi:sides="5"
       sodipodi:cx="99.075455"
       sodipodi:cy="7.7650237"
       sodipodi:r1="5.6364703"
       sodipodi:r2="2.8182349"
       sodipodi:arg1="-1.5707963"
       sodipodi:arg2="-0.9424778"
       inkscape:rounded="0"
       inkscape:randomized="0"
       d="m 99.075455,2.1285534 1.656515,3.3564704 3.70409,0.5382349 -2.6803,2.6126475 0.63273,3.6891178 -3.313035,-1.741765 -3.313035,1.741765 0.632734,-3.6891178 -2.680301,-2.6126478 3.704085,-0.5382346 z"
       transform="matrix(0.72856117,0,0,-0.7660411,11.01796,42.60361)"
       inkscape:transform-center-y="0.41230977" /><path
       sodipodi:type="star"
       style="fill:none;stroke:#ffffff;stroke-width:1.77073;stroke-dasharray:none;stroke-opacity:1"
       id="path10"
       inkscape:flatsided="false"
       sodipodi:sides="5"
       sodipodi:cx="99.075455"
       sodipodi:cy="7.7650237"
       sodipodi:r1="5.6364703"
       sodipodi:r2="2.8182349"
       sodipodi:arg1="-1.5707963"
       sodipodi:arg2="-0.9424778"
       inkscape:rounded="0"
       inkscape:randomized="0"
       d="m 99.075455,2.1285534 1.656515,3.3564704 3.70409,0.5382349 -2.6803,2.6126475 0.63273,3.6891178 -3.313035,-1.741765 -3.313035,1.741765 0.632734,-3.6891178 -2.680301,-2.6126478 3.704085,-0.5382346 z"
       transform="matrix(0.72856117,0,0,0.7660411,26.89296,31.824255)"
       inkscape:transform-center-y="-0.41230984" /><path
       sodipodi:type="star"
       style="fill:none;stroke:#ffffff;stroke-width:1.77073;stroke-dasharray:none;stroke-opacity:1"
       id="path11"
       inkscape:flatsided="false"
       sodipodi:sides="5"
       sodipodi:cx="99.075455"
       sodipodi:cy="7.7650237"
       sodipodi:r1="5.6364703"
       sodipodi:r2="2.8182349"
       sodipodi:arg1="-1.5707963"
       sodipodi:arg2="-0.9424778"
       inkscape:rounded="0"
       inkscape:randomized="0"
       d="m 99.075455,2.1285534 1.656515,3.3564704 3.70409,0.5382349 -2.6803,2.6126475 0.63273,3.6891178 -3.313035,-1.741765 -3.313035,1.741765 0.632734,-3.6891178 -2.680301,-2.6126478 3.704085,-0.5382346 z"
       transform="matrix(0.72856117,0,0,-0.7660411,42.76796,42.60361)"
       inkscape:transform-center-y="0.41230977" /><path
       sodipodi:type="star"
       style="fill:none;stroke:#ffffff;stroke-width:1.77073;stroke-dasharray:none;stroke-opacity:1"
       id="path12"
       inkscape:flatsided="false"
       sodipodi:sides="5"
       sodipodi:cx="99.075455"
       sodipodi:cy="7.7650237"
       sodipodi:r1="5.6364703"
       sodipodi:r2="2.8182349"
       sodipodi:arg1="-1.5707963"
       sodipodi:arg2="-0.9424778"
       inkscape:rounded="0"
       inkscape:randomized="0"
       d="m 99.075455,2.1285534 1.656515,3.3564704 3.70409,0.5382349 -2.6803,2.6126475 0.63273,3.6891178 -3.313035,-1.741765 -3.313035,1.741765 0.632734,-3.6891178 -2.680301,-2.6126478 3.704085,-0.5382346 z"
       transform="matrix(0.72856117,0,0,0.7660411,58.64296,31.824255)"
       inkscape:transform-center-y="-0.41230984" /><path
       sodipodi:type="star"
       style="fill:none;stroke:#ffffff;stroke-width:1.77073;stroke-dasharray:none;stroke-opacity:1"
       id="path13"
       inkscape:flatsided="false"
       sodipodi:sides="5"
       sodipodi:cx="99.075455"
       sodipodi:cy="7.7650237"
       sodipodi:r1="5.6364703"
       sodipodi:r2="2.8182349"
       sodipodi:arg1="-1.5707963"
       sodipodi:arg2="-0.9424778"
       inkscape:rounded="0"
       inkscape:randomized="0"
       d="m 99.075455,2.1285534 1.656515,3.3564704 3.70409,0.5382349 -2.6803,2.6126475 0.63273,3.6891178 -3.313035,-1.741765 -3.313035,1.741765 0.632734,-3.6891178 -2.680301,-2.6126478 3.704085,-0.5382346 z"
       transform="matrix(0.72856117,0,0,-0.7660411,74.51796,42.60361)"
       inkscape:transform-center-y="0.41230977" /><path
       sodipodi:type="star"
       style="fill:none;stroke:#ffffff;stroke-width:1.77073;stroke-dasharray:none;stroke-opacity:1"
       id="path14"
       inkscape:flatsided="false"
       sodipodi:sides="5"
       sodipodi:cx="99.075455"
       sodipodi:cy="7.7650237"
       sodipodi:r1="5.6364703"
       sodipodi:r2="2.8182349"
       sodipodi:arg1="-1.5707963"
       sodipodi:arg2="-0.9424778"
       inkscape:rounded="0"
       inkscape:randomized="0"
       d="m 99.075455,2.1285534 1.656515,3.3564704 3.70409,0.5382349 -2.6803,2.6126475 0.63273,3.6891178 -3.313035,-1.741765 -3.313035,1.741765 0.632734,-3.6891178 -2.680301,-2.6126478 3.704085,-0.5382346 z"
       transform="matrix(0.72856117,0,0,0.7660411,-12.79454,47.699255)"
       inkscape:transform-center-y="-0.41230984" /><path
       sodipodi:type="star"
       style="fill:none;stroke:#ffffff;stroke-width:1.77073;stroke-dasharray:none;stroke-opacity:1"
       id="path15"
       inkscape:flatsided="false"
       sodipodi:sides="5"
       sodipodi:cx="99.075455"
       sodipodi:cy="7.7650237"
       sodipodi:r1="5.6364703"
       sodipodi:r2="2.8182349"
       sodipodi:arg1="-1.5707963"
       sodipodi:arg2="-0.9424778"
       inkscape:rounded="0"
       inkscape:randomized="0"
       d="m 99.075455,2.1285534 1.656515,3.3564704 3.70409,0.5382349 -2.6803,2.6126475 0.63273,3.6891178 -3.313035,-1.741765 -3.313035,1.741765 0.632734,-3.6891178 -2.680301,-2.6126478 3.704085,-0.5382346 z"
       transform="matrix(0.72856117,0,0,0.7660411,3.0804597,47.699255)"
       inkscape:transform-center-y="-0.41230984" /><path
       sodipodi:type="star"
       style="fill:none;stroke:#ffffff;stroke-width:1.77073;stroke-dasharray:none;stroke-opacity:1"
       id="path16"
       inkscape:flatsided="false"
       sodipodi:sides="5"
       sodipodi:cx="99.075455"
       sodipodi:cy="7.7650237"
       sodipodi:r1="5.6364703"
       sodipodi:r2="2.8182349"
       sodipodi:arg1="-1.5707963"
       sodipodi:arg2="-0.9424778"
       inkscape:rounded="0"
       inkscape:randomized="0"
       d="m 99.075455,2.1285534 1.656515,3.3564704 3.70409,0.5382349 -2.6803,2.6126475 0.63273,3.6891178 -3.313035,-1.741765 -3.313035,1.741765 0.632734,-3.6891178 -2.680301,-2.6126478 3.704085,-0.5382346 z"
       transform="matrix(0.72856117,0,0,0.7660411,18.95546,47.699255)"
       inkscape:transform-center-y="-0.41230984" /><path
       sodipodi:type="star"
       style="fill:none;stroke:#ffffff;stroke-width:1.77073;stroke-dasharray:none;stroke-opacity:1"
       id="path17"
       inkscape:flatsided="false"
       sodipodi:sides="5"
       sodipodi:cx="99.075455"
       sodipodi:cy="7.7650237"
       sodipodi:r1="5.6364703"
       sodipodi:r2="2.8182349"
       sodipodi:arg1="-1.5707963"
       sodipodi:arg2="-0.9424778"
       inkscape:rounded="0"
       inkscape:randomized="0"
       d="m 99.075455,2.1285534 1.656515,3.3564704 3.70409,0.5382349 -2.6803,2.6126475 0.63273,3.6891178 -3.313035,-1.741765 -3.313035,1.741765 0.632734,-3.6891178 -2.680301,-2.6126478 3.704085,-0.5382346 z"
       transform="matrix(0.72856117,0,0,0.7660411,34.83046,47.699255)"
       inkscape:transform-center-y="-0.41230984" /><path
       sodipodi:type="star"
       style="fill:none;stroke:#ffffff;stroke-width:1.77073;stroke-dasharray:none;stroke-opacity:1"
       id="path18"
       inkscape:flatsided="false"
       sodipodi:sides="5"
       sodipodi:cx="99.075455"
       sodipodi:cy="7.7650237"
       sodipodi:r1="5.6364703"
       sodipodi:r2="2.8182349"
       sodipodi:arg1="-1.5707963"
       sodipodi:arg2="-0.9424778"
       inkscape:rounded="0"
       inkscape:randomized="0"
       d="m 99.075455,2.1285534 1.656515,3.3564704 3.70409,0.5382349 -2.6803,2.6126475 0.63273,3.6891178 -3.313035,-1.741765 -3.313035,1.741765 0.632734,-3.6891178 -2.680301,-2.6126478 3.704085,-0.5382346 z"
       transform="matrix(0.72856117,0,0,0.7660411,50.70546,47.699255)"
       inkscape:transform-center-y="-0.41230984" /><path
       sodipodi:type="star"
       style="fill:none;stroke:#ffffff;stroke-width:1.77073;stroke-dasharray:none;stroke-opacity:1"
       id="path19"
       inkscape:flatsided="false"
       sodipodi:sides="5"
       sodipodi:cx="99.075455"
       sodipodi:cy="7.7650237"
       sodipodi:r1="5.6364703"
       sodipodi:r2="2.8182349"
       sodipodi:arg1="-1.5707963"
       sodipodi:arg2="-0.9424778"
       inkscape:rounded="0"
       inkscape:randomized="0"
       d="m 99.075455,2.1285534 1.656515,3.3564704 3.70409,0.5382349 -2.6803,2.6126475 0.63273,3.6891178 -3.313035,-1.741765 -3.313035,1.741765 0.632734,-3.6891178 -2.680301,-2.6126478 3.704085,-0.5382346 z"
       transform="matrix(0.72856117,0,0,0.7660411,66.58046,47.699255)"
       inkscape:transform-center-y="-0.41230984" /></g></svg>
