<?xml version="1.0" encoding="UTF-8" standalone="no"?>
<!-- Created with Inkscape (http://www.inkscape.org/) -->

<svg
   width="105.83334mm"
   height="52.916668mm"
   viewBox="0 0 105.83334 52.916667"
   version="1.1"
   id="svg1"
   xml:space="preserve"
   inkscape:version="1.4.2 (f4327f4, 2025-05-13)"
   sodipodi:docname="shapes_mask.svg"
   xmlns:inkscape="http://www.inkscape.org/namespaces/inkscape"
   xmlns:sodipodi="http://sodipodi.sourceforge.net/DTD/sodipodi-0.dtd"
   xmlns="http://www.w3.org/2000/svg"
   xmlns:svg="http://www.w3.org/2000/svg"><sodipodi:namedview
     id="namedview1"
     pagecolor="#ffffff"
     bordercolor="#000000"
     borderopacity="0.25"
     inkscape:showpageshadow="2"
     inkscape:pageopacity="0.0"
     inkscape:pagecheckerboard="0"
     inkscape:deskcolor="#d1d1d1"
     inkscape:document-units="mm"
     showguides="true"
     inkscape:zoom="0.63370775"
     inkscape:cx="357.42028"
     inkscape:cy="273.78551"
     inkscape:window-width="1360"
     inkscape:window-height="705"
     inkscape:window-x="-8"
     inkscape:window-y="-8"
     inkscape:window-maximized="1"
     inkscape:current-layer="layer1"><sodipodi:guide
       position="53.84121,210.40149"
       orientation="-1,0"
       id="guide2"
       inkscape:locked="false"
       inkscape:label=""
       inkscape:color="rgb(0,134,229)" /><sodipodi:guide
       position="53.84121,210.40149"
       orientation="0,1"
       id="guide3"
       inkscape:locked="false"
       inkscape:label=""
       inkscape:color="rgb(0,134,229)" /></sodipodi:namedview><defs
     id="defs1" /><g
     inkscape:label="Ebene 1"
     inkscape:groupmode="layer"
     id="layer1"
     transform="translate(-46.158791,-13.401493)"><path
       style="fill:#ffffff;fill-opacity:1;stroke:#ffffff;stroke-width:4.95129;stroke-dasharray:none;stroke-opacity:1"
       d="m 120.1675,58.120364 c -14.11895,-6.606858 -27.235564,-6.682017 -41.692417,-0.2389 -1.614528,0.719563 -3.344419,1.308295 -3.8442,1.308295 -1.271871,0 -21.725077,-20.61412 -21.725077,-21.895999 0,-1.459103 1.444204,-2.925754 5.041565,-5.119925 9.94234,-6.064223 19.246559,-9.51576 29.886078,-11.086678 5.538957,-0.817823 16.434371,-0.824994 22.049841,-0.01451 10.9471,1.580001 21.88821,5.665798 30.936,11.552601 3.33845,2.172115 4.40266,3.294802 4.40266,4.644609 0,0.892768 -19.17485,20.767418 -20.95151,21.716153 -0.95271,0.508744 -1.34086,0.426854 -4.10294,-0.865646 z"
       id="path4" /></g></svg>
